<?xml version="1.0" encoding="UTF-8" standalone="no"?>
<!DOCTYPE svg PUBLIC "-//W3C//DTD SVG 1.1//EN"
 "http://www.w3.org/Graphics/SVG/1.1/DTD/svg11.dtd">
<!-- Generated by graphviz version 2.38.0 (20140413.2041)
 -->
<!-- Title: dependencies Pages: 1 -->
<svg width="783pt" height="332pt"
 viewBox="0.00 0.00 782.62 332.00" xmlns="http://www.w3.org/2000/svg" xmlns:xlink="http://www.w3.org/1999/xlink">
<g id="graph0" class="graph" transform="scale(1 1) rotate(0) translate(4 328)">
<title>dependencies</title>
<polygon fill="white" stroke="none" points="-4,4 -4,-328 778.623,-328 778.623,4 -4,4"/>
<!-- N0 -->
<g id="node1" class="node"><title>N0</title>
<ellipse fill="none" stroke="black" cx="343" cy="-306" rx="88.2844" ry="18"/>
<text text-anchor="middle" x="343" y="-302.3" font-family="Times,serif" font-size="14.00">rust&#45;crypto&#45;decoupled</text>
</g>
<!-- N1 -->
<g id="node2" class="node"><title>N1</title>
<ellipse fill="none" stroke="black" cx="131" cy="-162" rx="58.4896" ry="18"/>
<text text-anchor="middle" x="131" y="-158.3" font-family="Times,serif" font-size="14.00">crypto_digest</text>
</g>
<!-- N0&#45;&gt;N1 -->
<g id="edge1" class="edge"><title>N0&#45;&gt;N1</title>
<path fill="none" stroke="black" d="M263.29,-298.191C200.831,-291.008 121.223,-277.131 101,-252 86.1073,-233.493 97.8812,-207.226 110.793,-188.026"/>
<polygon fill="black" stroke="black" points="113.74,-189.923 116.714,-179.754 108.048,-185.848 113.74,-189.923"/>
</g>
<!-- N2 -->
<g id="node3" class="node"><title>N2</title>
<ellipse fill="none" stroke="black" cx="594" cy="-234" rx="31.3957" ry="18"/>
<text text-anchor="middle" x="594" y="-230.3" font-family="Times,serif" font-size="14.00">ghash</text>
</g>
<!-- N0&#45;&gt;N2 -->
<g id="edge2" class="edge"><title>N0&#45;&gt;N2</title>
<path fill="none" stroke="black" d="M396.141,-291.527C436.119,-281.21 492.18,-266.354 541,-252 546.447,-250.399 552.185,-248.637 557.793,-246.873"/>
<polygon fill="black" stroke="black" points="559.194,-250.1 567.659,-243.729 557.068,-243.43 559.194,-250.1"/>
</g>
<!-- N3 -->
<g id="node4" class="node"><title>N3</title>
<ellipse fill="none" stroke="black" cx="137" cy="-234" rx="27" ry="18"/>
<text text-anchor="middle" x="137" y="-230.3" font-family="Times,serif" font-size="14.00">md5</text>
</g>
<!-- N0&#45;&gt;N3 -->
<g id="edge3" class="edge"><title>N0&#45;&gt;N3</title>
<path fill="none" stroke="black" d="M292.156,-291.155C258.038,-281.377 212.317,-267.327 173,-252 171.165,-251.285 169.292,-250.518 167.412,-249.72"/>
<polygon fill="black" stroke="black" points="168.665,-246.446 158.106,-245.565 165.811,-252.838 168.665,-246.446"/>
</g>
<!-- N4 -->
<g id="node5" class="node"><title>N4</title>
<ellipse fill="none" stroke="black" cx="706" cy="-234" rx="44.393" ry="18"/>
<text text-anchor="middle" x="706" y="-230.3" font-family="Times,serif" font-size="14.00">poly1305</text>
</g>
<!-- N0&#45;&gt;N4 -->
<g id="edge4" class="edge"><title>N0&#45;&gt;N4</title>
<path fill="none" stroke="black" d="M409.066,-293.97C468.171,-283.864 557.093,-268.072 634,-252 642.134,-250.3 650.754,-248.374 659.097,-246.444"/>
<polygon fill="black" stroke="black" points="660.146,-249.793 669.083,-244.103 658.549,-242.978 660.146,-249.793"/>
</g>
<!-- N5 -->
<g id="node6" class="node"><title>N5</title>
<ellipse fill="none" stroke="black" cx="231" cy="-234" rx="49.2915" ry="18"/>
<text text-anchor="middle" x="231" y="-230.3" font-family="Times,serif" font-size="14.00">ripemd160</text>
</g>
<!-- N0&#45;&gt;N5 -->
<g id="edge5" class="edge"><title>N0&#45;&gt;N5</title>
<path fill="none" stroke="black" d="M317.023,-288.765C301.065,-278.791 280.488,-265.93 263.461,-255.288"/>
<polygon fill="black" stroke="black" points="265.259,-252.284 254.924,-249.952 261.549,-258.22 265.259,-252.284"/>
</g>
<!-- N6 -->
<g id="node7" class="node"><title>N6</title>
<ellipse fill="none" stroke="black" cx="433" cy="-234" rx="27" ry="18"/>
<text text-anchor="middle" x="433" y="-230.3" font-family="Times,serif" font-size="14.00">sha1</text>
</g>
<!-- N0&#45;&gt;N6 -->
<g id="edge6" class="edge"><title>N0&#45;&gt;N6</title>
<path fill="none" stroke="black" d="M364.329,-288.411C377.415,-278.233 394.235,-265.151 407.953,-254.481"/>
<polygon fill="black" stroke="black" points="410.287,-257.099 416.032,-248.197 405.99,-251.574 410.287,-257.099"/>
</g>
<!-- N7 -->
<g id="node8" class="node"><title>N7</title>
<ellipse fill="none" stroke="black" cx="505" cy="-234" rx="27" ry="18"/>
<text text-anchor="middle" x="505" y="-230.3" font-family="Times,serif" font-size="14.00">sha2</text>
</g>
<!-- N0&#45;&gt;N7 -->
<g id="edge7" class="edge"><title>N0&#45;&gt;N7</title>
<path fill="none" stroke="black" d="M380.673,-289.65C405.808,-279.287 439.526,-265.151 469,-252 470.799,-251.197 472.643,-250.363 474.501,-249.513"/>
<polygon fill="black" stroke="black" points="476.153,-252.605 483.75,-245.22 473.205,-246.256 476.153,-252.605"/>
</g>
<!-- N8 -->
<g id="node9" class="node"><title>N8</title>
<ellipse fill="none" stroke="black" cx="27" cy="-234" rx="27" ry="18"/>
<text text-anchor="middle" x="27" y="-230.3" font-family="Times,serif" font-size="14.00">sha3</text>
</g>
<!-- N0&#45;&gt;N8 -->
<g id="edge8" class="edge"><title>N0&#45;&gt;N8</title>
<path fill="none" stroke="black" d="M271.683,-295.317C215.599,-286.735 135.872,-272.381 68,-252 64.8266,-251.047 61.5624,-249.935 58.3276,-248.743"/>
<polygon fill="black" stroke="black" points="59.4185,-245.411 48.8312,-245.012 56.8587,-251.926 59.4185,-245.411"/>
</g>
<!-- N9 -->
<g id="node10" class="node"><title>N9</title>
<ellipse fill="none" stroke="black" cx="343" cy="-234" rx="44.6926" ry="18"/>
<text text-anchor="middle" x="343" y="-230.3" font-family="Times,serif" font-size="14.00">whirlpool</text>
</g>
<!-- N0&#45;&gt;N9 -->
<g id="edge9" class="edge"><title>N0&#45;&gt;N9</title>
<path fill="none" stroke="black" d="M343,-287.697C343,-279.983 343,-270.712 343,-262.112"/>
<polygon fill="black" stroke="black" points="346.5,-262.104 343,-252.104 339.5,-262.104 346.5,-262.104"/>
</g>
<!-- N14 -->
<g id="node15" class="node"><title>N14</title>
<ellipse fill="none" stroke="black" cx="131" cy="-90" rx="59.5901" ry="18"/>
<text text-anchor="middle" x="131" y="-86.3" font-family="Times,serif" font-size="14.00">rustc&#45;serialize</text>
</g>
<!-- N1&#45;&gt;N14 -->
<g id="edge10" class="edge"><title>N1&#45;&gt;N14</title>
<path fill="none" stroke="black" d="M131,-143.697C131,-135.983 131,-126.712 131,-118.112"/>
<polygon fill="black" stroke="black" points="134.5,-118.104 131,-108.104 127.5,-118.104 134.5,-118.104"/>
</g>
<!-- N13 -->
<g id="node14" class="node"><title>N13</title>
<ellipse fill="none" stroke="black" cx="435" cy="-90" rx="55.7903" ry="18"/>
<text text-anchor="middle" x="435" y="-86.3" font-family="Times,serif" font-size="14.00">crypto_bytes</text>
</g>
<!-- N2&#45;&gt;N13 -->
<g id="edge11" class="edge"><title>N2&#45;&gt;N13</title>
<path fill="none" stroke="black" d="M602.632,-216.499C611.395,-197.204 621.632,-165.211 606,-144 582.066,-111.525 538.443,-98.3561 501.25,-93.2647"/>
<polygon fill="black" stroke="black" points="501.296,-89.7454 490.951,-92.0335 500.465,-96.6959 501.296,-89.7454"/>
</g>
<!-- N16 -->
<g id="node17" class="node"><title>N16</title>
<ellipse fill="none" stroke="black" cx="706" cy="-162" rx="52.7911" ry="18"/>
<text text-anchor="middle" x="706" y="-158.3" font-family="Times,serif" font-size="14.00">crypto_mac</text>
</g>
<!-- N2&#45;&gt;N16 -->
<g id="edge12" class="edge"><title>N2&#45;&gt;N16</title>
<path fill="none" stroke="black" d="M614.543,-220.161C630.898,-209.939 654.108,-195.433 673.053,-183.592"/>
<polygon fill="black" stroke="black" points="675.064,-186.462 681.689,-178.194 671.354,-180.526 675.064,-186.462"/>
</g>
<!-- N17 -->
<g id="node18" class="node"><title>N17</title>
<ellipse fill="none" stroke="black" cx="568" cy="-162" rx="28.6953" ry="18"/>
<text text-anchor="middle" x="568" y="-158.3" font-family="Times,serif" font-size="14.00">simd</text>
</g>
<!-- N2&#45;&gt;N17 -->
<g id="edge13" class="edge"><title>N2&#45;&gt;N17</title>
<path fill="none" stroke="black" d="M587.706,-216.055C584.736,-208.059 581.123,-198.331 577.806,-189.4"/>
<polygon fill="black" stroke="black" points="580.999,-187.945 574.236,-179.789 574.437,-190.382 580.999,-187.945"/>
</g>
<!-- N3&#45;&gt;N1 -->
<g id="edge14" class="edge"><title>N3&#45;&gt;N1</title>
<path fill="none" stroke="black" d="M135.517,-215.697C134.856,-207.983 134.061,-198.712 133.324,-190.112"/>
<polygon fill="black" stroke="black" points="136.807,-189.769 132.466,-180.104 129.833,-190.367 136.807,-189.769"/>
</g>
<!-- N3&#45;&gt;N13 -->
<g id="edge15" class="edge"><title>N3&#45;&gt;N13</title>
<path fill="none" stroke="black" d="M114.606,-223.687C97.2805,-215.138 74.5266,-200.651 64,-180 56.7337,-165.745 53.5168,-156.087 64,-144 83.7829,-121.19 269.936,-103.593 370.789,-95.6424"/>
<polygon fill="black" stroke="black" points="371.17,-99.1234 380.868,-94.8575 370.626,-92.1446 371.17,-99.1234"/>
</g>
<!-- N15 -->
<g id="node16" class="node"><title>N15</title>
<ellipse fill="none" stroke="black" cx="326" cy="-162" rx="81.4863" ry="18"/>
<text text-anchor="middle" x="326" y="-158.3" font-family="Times,serif" font-size="14.00">crypto_fixed_buffer</text>
</g>
<!-- N3&#45;&gt;N15 -->
<g id="edge16" class="edge"><title>N3&#45;&gt;N15</title>
<path fill="none" stroke="black" d="M158.151,-222.548C162.987,-220.288 168.136,-217.984 173,-216 205.272,-202.835 242.172,-189.991 271.647,-180.244"/>
<polygon fill="black" stroke="black" points="272.932,-183.506 281.341,-177.061 270.749,-176.855 272.932,-183.506"/>
</g>
<!-- N4&#45;&gt;N13 -->
<g id="edge17" class="edge"><title>N4&#45;&gt;N13</title>
<path fill="none" stroke="black" d="M728.88,-218.181C754.218,-199.976 788.904,-168.494 768,-144 750.716,-123.747 589.819,-105.513 498.159,-96.6568"/>
<polygon fill="black" stroke="black" points="498.442,-93.168 488.154,-95.7008 497.776,-100.136 498.442,-93.168"/>
</g>
<!-- N4&#45;&gt;N16 -->
<g id="edge18" class="edge"><title>N4&#45;&gt;N16</title>
<path fill="none" stroke="black" d="M706,-215.697C706,-207.983 706,-198.712 706,-190.112"/>
<polygon fill="black" stroke="black" points="709.5,-190.104 706,-180.104 702.5,-190.104 709.5,-190.104"/>
</g>
<!-- N5&#45;&gt;N1 -->
<g id="edge19" class="edge"><title>N5&#45;&gt;N1</title>
<path fill="none" stroke="black" d="M209.301,-217.811C195.343,-208.04 176.996,-195.197 161.571,-184.4"/>
<polygon fill="black" stroke="black" points="163.548,-181.511 153.349,-178.644 159.534,-187.246 163.548,-181.511"/>
</g>
<!-- N5&#45;&gt;N13 -->
<g id="edge20" class="edge"><title>N5&#45;&gt;N13</title>
<path fill="none" stroke="black" d="M226.547,-215.828C222.561,-196.191 219.585,-164.162 236,-144 253.406,-122.621 322.059,-107.766 373.898,-99.3333"/>
<polygon fill="black" stroke="black" points="374.691,-102.752 384.022,-97.7324 373.598,-95.8374 374.691,-102.752"/>
</g>
<!-- N5&#45;&gt;N15 -->
<g id="edge21" class="edge"><title>N5&#45;&gt;N15</title>
<path fill="none" stroke="black" d="M252.084,-217.465C264.759,-208.125 281.114,-196.074 295.215,-185.683"/>
<polygon fill="black" stroke="black" points="297.677,-188.217 303.652,-179.467 293.525,-182.582 297.677,-188.217"/>
</g>
<!-- N6&#45;&gt;N1 -->
<g id="edge22" class="edge"><title>N6&#45;&gt;N1</title>
<path fill="none" stroke="black" d="M412.415,-222.225C407.461,-219.929 402.119,-217.69 397,-216 359.52,-203.624 257.057,-184.729 190.793,-173.16"/>
<polygon fill="black" stroke="black" points="191.339,-169.702 180.888,-171.438 190.14,-176.599 191.339,-169.702"/>
</g>
<!-- N6&#45;&gt;N13 -->
<g id="edge23" class="edge"><title>N6&#45;&gt;N13</title>
<path fill="none" stroke="black" d="M439.486,-216.104C443.077,-205.835 447.175,-192.361 449,-180 451.337,-164.172 451.06,-159.867 449,-144 447.867,-135.277 445.728,-125.945 443.456,-117.58"/>
<polygon fill="black" stroke="black" points="446.816,-116.598 440.678,-107.962 440.091,-118.541 446.816,-116.598"/>
</g>
<!-- N6&#45;&gt;N15 -->
<g id="edge24" class="edge"><title>N6&#45;&gt;N15</title>
<path fill="none" stroke="black" d="M414.362,-220.807C399.234,-210.91 377.519,-196.704 359.402,-184.852"/>
<polygon fill="black" stroke="black" points="361.127,-181.798 350.842,-179.252 357.294,-187.655 361.127,-181.798"/>
</g>
<!-- N6&#45;&gt;N17 -->
<g id="edge25" class="edge"><title>N6&#45;&gt;N17</title>
<path fill="none" stroke="black" d="M453.798,-222.216C476.195,-210.603 512.046,-192.013 537.603,-178.762"/>
<polygon fill="black" stroke="black" points="539.242,-181.854 546.509,-174.144 536.02,-175.64 539.242,-181.854"/>
</g>
<!-- N7&#45;&gt;N1 -->
<g id="edge26" class="edge"><title>N7&#45;&gt;N1</title>
<path fill="none" stroke="black" d="M484.466,-222.063C479.51,-219.774 474.155,-217.579 469,-216 368.811,-185.311 339.497,-196.374 236,-180 221.551,-177.714 205.989,-175.215 191.388,-172.854"/>
<polygon fill="black" stroke="black" points="191.889,-169.389 181.458,-171.245 190.77,-176.299 191.889,-169.389"/>
</g>
<!-- N7&#45;&gt;N13 -->
<g id="edge27" class="edge"><title>N7&#45;&gt;N13</title>
<path fill="none" stroke="black" d="M497.779,-216.435C489.84,-198.439 476.54,-168.923 464,-144 459.499,-135.055 454.322,-125.411 449.599,-116.833"/>
<polygon fill="black" stroke="black" points="452.623,-115.068 444.706,-108.027 446.504,-118.468 452.623,-115.068"/>
</g>
<!-- N7&#45;&gt;N15 -->
<g id="edge28" class="edge"><title>N7&#45;&gt;N15</title>
<path fill="none" stroke="black" d="M483.817,-222.625C478.982,-220.362 473.842,-218.036 469,-216 439.111,-203.432 405.095,-190.76 377.74,-180.959"/>
<polygon fill="black" stroke="black" points="378.577,-177.542 367.983,-177.484 376.229,-184.137 378.577,-177.542"/>
</g>
<!-- N7&#45;&gt;N17 -->
<g id="edge29" class="edge"><title>N7&#45;&gt;N17</title>
<path fill="none" stroke="black" d="M518.361,-218.155C526.765,-208.816 537.783,-196.574 547.303,-185.997"/>
<polygon fill="black" stroke="black" points="550.135,-188.082 554.223,-178.308 544.932,-183.399 550.135,-188.082"/>
</g>
<!-- N8&#45;&gt;N1 -->
<g id="edge30" class="edge"><title>N8&#45;&gt;N1</title>
<path fill="none" stroke="black" d="M45.5931,-220.485C60.5556,-210.414 81.9175,-196.036 99.5337,-184.179"/>
<polygon fill="black" stroke="black" points="101.495,-187.078 107.836,-178.591 97.5861,-181.271 101.495,-187.078"/>
</g>
<!-- N8&#45;&gt;N13 -->
<g id="edge31" class="edge"><title>N8&#45;&gt;N13</title>
<path fill="none" stroke="black" d="M27.0295,-215.655C28.0742,-195.23 33.134,-161.835 54,-144 77.6505,-123.785 268.754,-104.917 370.991,-96.1457"/>
<polygon fill="black" stroke="black" points="371.532,-99.6125 381.199,-95.2781 370.939,-92.6376 371.532,-99.6125"/>
</g>
<!-- N9&#45;&gt;N1 -->
<g id="edge32" class="edge"><title>N9&#45;&gt;N1</title>
<path fill="none" stroke="black" d="M309.408,-221.908C274.32,-210.323 218.955,-192.042 179.206,-178.917"/>
<polygon fill="black" stroke="black" points="180.052,-175.511 169.459,-175.699 177.857,-182.158 180.052,-175.511"/>
</g>
<!-- N9&#45;&gt;N13 -->
<g id="edge33" class="edge"><title>N9&#45;&gt;N13</title>
<path fill="none" stroke="black" d="M370.578,-219.526C386.249,-210.469 404.901,-197.069 416,-180 427.952,-161.62 432.529,-137.016 434.215,-118.335"/>
<polygon fill="black" stroke="black" points="437.724,-118.327 434.908,-108.113 430.74,-117.854 437.724,-118.327"/>
</g>
<!-- N9&#45;&gt;N15 -->
<g id="edge34" class="edge"><title>N9&#45;&gt;N15</title>
<path fill="none" stroke="black" d="M338.885,-216.055C336.992,-208.261 334.7,-198.822 332.576,-190.079"/>
<polygon fill="black" stroke="black" points="335.957,-189.167 330.195,-180.275 329.154,-190.819 335.957,-189.167"/>
</g>
<!-- N10 -->
<g id="node11" class="node"><title>N10</title>
<ellipse fill="none" stroke="black" cx="706" cy="-90" rx="53.0913" ry="18"/>
<text text-anchor="middle" x="706" y="-86.3" font-family="Times,serif" font-size="14.00">constant_op</text>
</g>
<!-- N11 -->
<g id="node12" class="node"><title>N11</title>
<ellipse fill="none" stroke="black" cx="670" cy="-18" rx="27" ry="18"/>
<text text-anchor="middle" x="670" y="-14.3" font-family="Times,serif" font-size="14.00">gcc</text>
</g>
<!-- N10&#45;&gt;N11 -->
<g id="edge35" class="edge"><title>N10&#45;&gt;N11</title>
<path fill="none" stroke="black" d="M697.285,-72.055C693.023,-63.7665 687.803,-53.6178 683.075,-44.4241"/>
<polygon fill="black" stroke="black" points="686.073,-42.5992 678.386,-35.307 679.847,-45.8006 686.073,-42.5992"/>
</g>
<!-- N12 -->
<g id="node13" class="node"><title>N12</title>
<ellipse fill="none" stroke="black" cx="742" cy="-18" rx="27" ry="18"/>
<text text-anchor="middle" x="742" y="-14.3" font-family="Times,serif" font-size="14.00">libc</text>
</g>
<!-- N10&#45;&gt;N12 -->
<g id="edge36" class="edge"><title>N10&#45;&gt;N12</title>
<path fill="none" stroke="black" d="M714.715,-72.055C718.977,-63.7665 724.197,-53.6178 728.925,-44.4241"/>
<polygon fill="black" stroke="black" points="732.153,-45.8006 733.614,-35.307 725.927,-42.5992 732.153,-45.8006"/>
</g>
<!-- N15&#45;&gt;N13 -->
<g id="edge37" class="edge"><title>N15&#45;&gt;N13</title>
<path fill="none" stroke="black" d="M351.281,-144.765C366.457,-135.018 385.925,-122.516 402.268,-112.021"/>
<polygon fill="black" stroke="black" points="404.455,-114.776 410.978,-106.427 400.673,-108.885 404.455,-114.776"/>
</g>
<!-- N16&#45;&gt;N10 -->
<g id="edge38" class="edge"><title>N16&#45;&gt;N10</title>
<path fill="none" stroke="black" d="M706,-143.697C706,-135.983 706,-126.712 706,-118.112"/>
<polygon fill="black" stroke="black" points="709.5,-118.104 706,-108.104 702.5,-118.104 709.5,-118.104"/>
</g>
</g>
</svg>
