<?xml version="1.0" encoding="UTF-8" standalone="no"?>
<!DOCTYPE svg PUBLIC "-//W3C//DTD SVG 1.1//EN"
 "http://www.w3.org/Graphics/SVG/1.1/DTD/svg11.dtd">
<!-- Generated by graphviz version 2.36.0 (20140111.2315)
 -->
<!-- Title: dependencies Pages: 1 -->
<svg width="815pt" height="332pt"
 viewBox="0.00 0.00 815.37 332.00" xmlns="http://www.w3.org/2000/svg" xmlns:xlink="http://www.w3.org/1999/xlink">
<g id="graph0" class="graph" transform="scale(1 1) rotate(0) translate(4 328)">
<title>dependencies</title>
<polygon fill="white" stroke="none" points="-4,4 -4,-328 811.37,-328 811.37,4 -4,4"/>
<!-- N0 -->
<g id="node1" class="node"><title>N0</title>
<polygon fill="none" stroke="green" points="380.37,-324 255.362,-306 380.37,-288 505.378,-306 380.37,-324"/>
<text text-anchor="middle" x="380.37" y="-302.3" font-family="Times,serif" font-size="14.00">rust&#45;crypto&#45;decoupled</text>
</g>
<!-- N1 -->
<g id="node2" class="node"><title>N1</title>
<polygon fill="none" stroke="green" points="317.37,-252 279.843,-234 317.37,-216 354.898,-234 317.37,-252"/>
<text text-anchor="middle" x="317.37" y="-230.3" font-family="Times,serif" font-size="14.00">md5</text>
</g>
<!-- N0&#45;&gt;N1 -->
<g id="edge1" class="edge"><title>N0&#45;&gt;N1</title>
<path fill="none" stroke="orange" d="M366.7,-289.811C357.382,-279.457 344.959,-265.654 334.911,-254.49"/>
<polygon fill="orange" stroke="orange" points="337.384,-252.006 328.093,-246.914 332.181,-256.689 337.384,-252.006"/>
</g>
<!-- N2 -->
<g id="node3" class="node"><title>N2</title>
<polygon fill="none" stroke="green" points="443.37,-252 374.085,-234 443.37,-216 512.655,-234 443.37,-252"/>
<text text-anchor="middle" x="443.37" y="-230.3" font-family="Times,serif" font-size="14.00">ripemd160</text>
</g>
<!-- N0&#45;&gt;N2 -->
<g id="edge2" class="edge"><title>N0&#45;&gt;N2</title>
<path fill="none" stroke="orange" d="M394.04,-289.811C402.692,-280.198 414.019,-267.613 423.637,-256.926"/>
<polygon fill="orange" stroke="orange" points="426.498,-258.979 430.586,-249.205 421.294,-254.297 426.498,-258.979"/>
</g>
<!-- N3 -->
<g id="node4" class="node"><title>N3</title>
<polygon fill="none" stroke="green" points="131.37,-252 93.8429,-234 131.37,-216 168.898,-234 131.37,-252"/>
<text text-anchor="middle" x="131.37" y="-230.3" font-family="Times,serif" font-size="14.00">sha1</text>
</g>
<!-- N0&#45;&gt;N3 -->
<g id="edge3" class="edge"><title>N0&#45;&gt;N3</title>
<path fill="none" stroke="orange" d="M334.855,-294.478C293.472,-284.589 230.88,-268.828 177.37,-252 171.888,-250.276 166.099,-248.279 160.545,-246.273"/>
<polygon fill="orange" stroke="orange" points="161.515,-242.9 150.922,-242.71 159.084,-249.465 161.515,-242.9"/>
</g>
<!-- N4 -->
<g id="node5" class="node"><title>N4</title>
<polygon fill="none" stroke="green" points="224.37,-252 186.843,-234 224.37,-216 261.898,-234 224.37,-252"/>
<text text-anchor="middle" x="224.37" y="-230.3" font-family="Times,serif" font-size="14.00">sha2</text>
</g>
<!-- N0&#45;&gt;N4 -->
<g id="edge4" class="edge"><title>N0&#45;&gt;N4</title>
<path fill="none" stroke="orange" d="M351.393,-291.998C323.018,-279.265 280.087,-260.001 252.135,-247.459"/>
<polygon fill="orange" stroke="orange" points="253.478,-244.225 242.922,-243.324 250.612,-250.612 253.478,-244.225"/>
</g>
<!-- N5 -->
<g id="node6" class="node"><title>N5</title>
<polygon fill="none" stroke="green" points="713.37,-252 675.843,-234 713.37,-216 750.898,-234 713.37,-252"/>
<text text-anchor="middle" x="713.37" y="-230.3" font-family="Times,serif" font-size="14.00">sha3</text>
</g>
<!-- N0&#45;&gt;N5 -->
<g id="edge5" class="edge"><title>N0&#45;&gt;N5</title>
<path fill="none" stroke="orange" d="M440.998,-296.714C499.337,-288.052 589.737,-272.809 666.37,-252 672.271,-250.398 678.485,-248.389 684.392,-246.32"/>
<polygon fill="orange" stroke="orange" points="685.738,-249.555 693.934,-242.841 683.34,-242.978 685.738,-249.555"/>
</g>
<!-- N6 -->
<g id="node7" class="node"><title>N6</title>
<polygon fill="none" stroke="green" points="594.37,-252 531.237,-234 594.37,-216 657.503,-234 594.37,-252"/>
<text text-anchor="middle" x="594.37" y="-230.3" font-family="Times,serif" font-size="14.00">whirlpool</text>
</g>
<!-- N0&#45;&gt;N6 -->
<g id="edge6" class="edge"><title>N0&#45;&gt;N6</title>
<path fill="none" stroke="orange" d="M416.672,-293.125C455.698,-280.36 517.435,-260.166 556.905,-247.255"/>
<polygon fill="orange" stroke="orange" points="558.017,-250.574 566.433,-244.138 555.84,-243.921 558.017,-250.574"/>
</g>
<!-- N7 -->
<g id="node8" class="node"><title>N7</title>
<polygon fill="none" stroke="green" points="410.37,-108 331.299,-90 410.37,-72 489.442,-90 410.37,-108"/>
<text text-anchor="middle" x="410.37" y="-86.3" font-family="Times,serif" font-size="14.00">crypto_bytes</text>
</g>
<!-- N1&#45;&gt;N7 -->
<g id="edge7" class="edge"><title>N1&#45;&gt;N7</title>
<path fill="none" stroke="orange" d="M335.615,-224.568C352.461,-215.822 376.855,-200.541 390.37,-180 402.449,-161.641 407.31,-137.035 409.228,-118.349"/>
<polygon fill="orange" stroke="orange" points="412.738,-118.371 410.05,-108.123 405.76,-117.81 412.738,-118.371"/>
</g>
<!-- N8 -->
<g id="node9" class="node"><title>N8</title>
<polygon fill="none" stroke="green" points="559.37,-180 476.784,-162 559.37,-144 641.956,-162 559.37,-180"/>
<text text-anchor="middle" x="559.37" y="-158.3" font-family="Times,serif" font-size="14.00">crypto_digest</text>
</g>
<!-- N1&#45;&gt;N8 -->
<g id="edge8" class="edge"><title>N1&#45;&gt;N8</title>
<path fill="none" stroke="orange" d="M337.374,-225.357C345.674,-222.292 355.435,-218.825 364.37,-216 414.528,-200.142 472.829,-184.678 512.525,-174.586"/>
<polygon fill="orange" stroke="orange" points="513.614,-177.921 522.451,-172.077 511.898,-171.135 513.614,-177.921"/>
</g>
<!-- N11 -->
<g id="node12" class="node"><title>N11</title>
<polygon fill="none" stroke="green" points="267.37,-180 153.028,-162 267.37,-144 381.713,-162 267.37,-180"/>
<text text-anchor="middle" x="267.37" y="-158.3" font-family="Times,serif" font-size="14.00">crypto_fixed_buffer</text>
</g>
<!-- N1&#45;&gt;N11 -->
<g id="edge9" class="edge"><title>N1&#45;&gt;N11</title>
<path fill="none" stroke="orange" d="M308.199,-220.161C301.505,-210.788 292.237,-197.813 284.223,-186.594"/>
<polygon fill="orange" stroke="orange" points="287.063,-184.549 278.403,-178.446 281.367,-188.617 287.063,-184.549"/>
</g>
<!-- N2&#45;&gt;N7 -->
<g id="edge10" class="edge"><title>N2&#45;&gt;N7</title>
<path fill="none" stroke="orange" d="M440.103,-216.544C436.491,-198.641 430.386,-169.203 424.37,-144 422.265,-135.181 419.788,-125.586 417.508,-117.014"/>
<polygon fill="orange" stroke="orange" points="420.841,-115.933 414.861,-107.187 414.082,-117.753 420.841,-115.933"/>
</g>
<!-- N2&#45;&gt;N8 -->
<g id="edge11" class="edge"><title>N2&#45;&gt;N8</title>
<path fill="none" stroke="orange" d="M463.311,-220.967C481.594,-209.934 508.909,-193.451 529.743,-180.878"/>
<polygon fill="orange" stroke="orange" points="531.763,-183.747 538.517,-175.584 528.146,-177.754 531.763,-183.747"/>
</g>
<!-- N2&#45;&gt;N11 -->
<g id="edge12" class="edge"><title>N2&#45;&gt;N11</title>
<path fill="none" stroke="orange" d="M417.401,-222.671C388.507,-211.179 341.461,-192.468 307.753,-179.061"/>
<polygon fill="orange" stroke="orange" points="308.776,-175.702 298.191,-175.258 306.189,-182.206 308.776,-175.702"/>
</g>
<!-- N3&#45;&gt;N7 -->
<g id="edge13" class="edge"><title>N3&#45;&gt;N7</title>
<path fill="none" stroke="orange" d="M102.49,-229.708C72.9156,-224.627 28.3932,-211.848 7.37027,-180 -1.44409,-166.647 -3.18009,-156.029 7.37027,-144 28.9795,-119.363 231.416,-102.574 340.88,-95.2163"/>
<polygon fill="orange" stroke="orange" points="341.427,-98.6878 351.173,-94.5337 340.964,-91.7031 341.427,-98.6878"/>
</g>
<!-- N3&#45;&gt;N8 -->
<g id="edge14" class="edge"><title>N3&#45;&gt;N8</title>
<path fill="none" stroke="orange" d="M150.326,-224.944C158.516,-221.739 168.287,-218.28 177.37,-216 236.6,-201.133 405.372,-180.543 497.506,-169.935"/>
<polygon fill="orange" stroke="orange" points="497.998,-173.401 507.534,-168.785 497.201,-166.447 497.998,-173.401"/>
</g>
<!-- N3&#45;&gt;N11 -->
<g id="edge15" class="edge"><title>N3&#45;&gt;N11</title>
<path fill="none" stroke="orange" d="M148.595,-224.134C169.694,-213.274 205.946,-194.615 232.865,-180.76"/>
<polygon fill="orange" stroke="orange" points="234.667,-183.769 241.957,-176.081 231.464,-177.545 234.667,-183.769"/>
</g>
<!-- N13 -->
<g id="node14" class="node"><title>N13</title>
<polygon fill="none" stroke="green" points="56.3703,-180 16.2055,-162 56.3703,-144 96.535,-162 56.3703,-180"/>
<text text-anchor="middle" x="56.3703" y="-158.3" font-family="Times,serif" font-size="14.00">simd</text>
</g>
<!-- N3&#45;&gt;N13 -->
<g id="edge16" class="edge"><title>N3&#45;&gt;N13</title>
<path fill="none" stroke="orange" d="M119.32,-221.753C107.759,-210.963 90.0873,-194.469 76.4075,-181.701"/>
<polygon fill="orange" stroke="orange" points="78.5893,-178.95 68.8906,-174.686 73.813,-184.068 78.5893,-178.95"/>
</g>
<!-- N4&#45;&gt;N7 -->
<g id="edge17" class="edge"><title>N4&#45;&gt;N7</title>
<path fill="none" stroke="orange" d="M203.4,-225.914C183.894,-218.071 156,-203.357 143.37,-180 135.76,-165.926 133.218,-156.366 143.37,-144 167.808,-114.235 269.353,-100.887 339.917,-95.1176"/>
<polygon fill="orange" stroke="orange" points="340.395,-98.591 350.091,-94.3202 339.848,-91.6124 340.395,-98.591"/>
</g>
<!-- N4&#45;&gt;N8 -->
<g id="edge18" class="edge"><title>N4&#45;&gt;N8</title>
<path fill="none" stroke="orange" d="M243.826,-224.963C251.93,-221.838 261.503,-218.432 270.37,-216 348.567,-194.553 441.078,-179.306 499.978,-170.828"/>
<polygon fill="orange" stroke="orange" points="500.806,-174.246 510.214,-169.375 499.821,-167.316 500.806,-174.246"/>
</g>
<!-- N4&#45;&gt;N11 -->
<g id="edge19" class="edge"><title>N4&#45;&gt;N11</title>
<path fill="none" stroke="orange" d="M232.458,-219.834C238.084,-210.675 245.75,-198.196 252.465,-187.264"/>
<polygon fill="orange" stroke="orange" points="255.565,-188.904 257.817,-178.552 249.601,-185.24 255.565,-188.904"/>
</g>
<!-- N4&#45;&gt;N13 -->
<g id="edge20" class="edge"><title>N4&#45;&gt;N13</title>
<path fill="none" stroke="orange" d="M205.099,-224.97C175.839,-212.779 119.992,-189.509 85.6807,-175.213"/>
<polygon fill="orange" stroke="orange" points="86.7725,-171.876 76.1955,-171.261 84.0801,-178.338 86.7725,-171.876"/>
</g>
<!-- N5&#45;&gt;N7 -->
<g id="edge21" class="edge"><title>N5&#45;&gt;N7</title>
<path fill="none" stroke="orange" d="M709.936,-217.435C704.632,-197.234 692.443,-162.401 668.37,-144 660.162,-137.726 534.93,-113.891 462.016,-100.42"/>
<polygon fill="orange" stroke="orange" points="462.561,-96.9616 452.092,-98.591 461.292,-103.846 462.561,-96.9616"/>
</g>
<!-- N5&#45;&gt;N8 -->
<g id="edge22" class="edge"><title>N5&#45;&gt;N8</title>
<path fill="none" stroke="orange" d="M695.1,-224.695C670.261,-213.405 625.35,-192.991 594.018,-178.749"/>
<polygon fill="orange" stroke="orange" points="595.32,-175.496 584.768,-174.544 592.423,-181.869 595.32,-175.496"/>
</g>
<!-- N10 -->
<g id="node11" class="node"><title>N10</title>
<polygon fill="none" stroke="green" points="722.37,-108 638.027,-90 722.37,-72 806.714,-90 722.37,-108"/>
<text text-anchor="middle" x="722.37" y="-86.3" font-family="Times,serif" font-size="14.00">rustc&#45;serialize</text>
</g>
<!-- N5&#45;&gt;N10 -->
<g id="edge23" class="edge"><title>N5&#45;&gt;N10</title>
<path fill="none" stroke="orange" d="M716.746,-217.319C718.831,-206.816 721.304,-192.648 722.37,-180 724.112,-159.344 724.028,-135.896 723.554,-118.255"/>
<polygon fill="orange" stroke="orange" points="727.047,-117.978 723.221,-108.098 720.05,-118.207 727.047,-117.978"/>
</g>
<!-- N6&#45;&gt;N7 -->
<g id="edge24" class="edge"><title>N6&#45;&gt;N7</title>
<path fill="none" stroke="orange" d="M611.687,-220.899C634.903,-203.211 670.949,-169.619 650.37,-144 644.413,-136.584 530.276,-113.778 461.579,-100.625"/>
<polygon fill="orange" stroke="orange" points="461.859,-97.1148 451.38,-98.6786 460.547,-103.991 461.859,-97.1148"/>
</g>
<!-- N6&#45;&gt;N8 -->
<g id="edge25" class="edge"><title>N6&#45;&gt;N8</title>
<path fill="none" stroke="orange" d="M586.776,-217.811C582.388,-209.035 576.761,-197.782 571.749,-187.757"/>
<polygon fill="orange" stroke="orange" points="574.795,-186.023 567.192,-178.644 568.534,-189.154 574.795,-186.023"/>
</g>
<!-- N6&#45;&gt;N11 -->
<g id="edge26" class="edge"><title>N6&#45;&gt;N11</title>
<path fill="none" stroke="orange" d="M561.701,-225.223C549.111,-222.27 534.585,-218.917 521.37,-216 454.151,-201.162 376.677,-185.154 325.141,-174.659"/>
<polygon fill="orange" stroke="orange" points="325.688,-171.199 315.191,-172.636 324.293,-178.058 325.688,-171.199"/>
</g>
<!-- N9 -->
<g id="node10" class="node"><title>N9</title>
<polygon fill="none" stroke="green" points="559.37,-108 521.843,-90 559.37,-72 596.898,-90 559.37,-108"/>
<text text-anchor="middle" x="559.37" y="-86.3" font-family="Times,serif" font-size="14.00">rand</text>
</g>
<!-- N8&#45;&gt;N9 -->
<g id="edge27" class="edge"><title>N8&#45;&gt;N9</title>
<path fill="none" stroke="orange" d="M559.37,-143.697C559.37,-135.983 559.37,-126.712 559.37,-118.112"/>
<polygon fill="orange" stroke="orange" points="562.87,-118.104 559.37,-108.104 555.87,-118.104 562.87,-118.104"/>
</g>
<!-- N8&#45;&gt;N10 -->
<g id="edge28" class="edge"><title>N8&#45;&gt;N10</title>
<path fill="none" stroke="orange" d="M585.922,-149.597C613.273,-137.852 656.078,-119.469 686.444,-106.429"/>
<polygon fill="orange" stroke="orange" points="688.023,-109.56 695.83,-102.398 685.26,-103.128 688.023,-109.56"/>
</g>
<!-- N12 -->
<g id="node13" class="node"><title>N12</title>
<polygon fill="none" stroke="green" points="559.37,-36 525.357,-18 559.37,-3.55271e-15 593.383,-18 559.37,-36"/>
<text text-anchor="middle" x="559.37" y="-14.3" font-family="Times,serif" font-size="14.00">libc</text>
</g>
<!-- N9&#45;&gt;N12 -->
<g id="edge29" class="edge"><title>N9&#45;&gt;N12</title>
<path fill="none" stroke="orange" d="M559.37,-71.6966C559.37,-63.9827 559.37,-54.7125 559.37,-46.1124"/>
<polygon fill="orange" stroke="orange" points="562.87,-46.1043 559.37,-36.1043 555.87,-46.1044 562.87,-46.1043"/>
</g>
<!-- N11&#45;&gt;N7 -->
<g id="edge30" class="edge"><title>N11&#45;&gt;N7</title>
<path fill="none" stroke="orange" d="M293.932,-147.998C317.424,-136.498 351.799,-119.671 377.113,-107.28"/>
<polygon fill="orange" stroke="orange" points="378.887,-110.308 386.329,-102.768 375.809,-104.021 378.887,-110.308"/>
</g>
</g>
</svg>
